<?xml version="1.0" encoding="UTF-8"?>
<!-- Generator: Adobe Illustrator 27.1.0, SVG Export Plug-In . SVG Version: 6.00 Build 0)  -->
<svg xmlns="http://www.w3.org/2000/svg" xmlns:xlink="http://www.w3.org/1999/xlink" version="1.1" id="Capa_1" x="0px" y="0px" viewBox="0 0 381.1 71.6" style="enable-background:new 0 0 381.1 71.6;" xml:space="preserve">
<style type="text/css">
	.st0{fill:#4C5061;}
	.st1{fill:#E3E4E7;}
	.st2{fill:#88BBBB;}
	.st3{fill:#D74342;}
</style>
<path class="st0" d="M90.2,42c0,0.9-0.1,1.7-0.2,2.7H69.4c0.1,1.9,0.7,3.3,1.8,4.3c1.1,1,2.4,1.4,3.9,1.4c2.3,0,3.9-1,4.8-2.9h9.7  c-0.5,2-1.4,3.7-2.7,5.3c-1.3,1.6-2.9,2.8-4.9,3.7s-4.1,1.3-6.6,1.3c-2.9,0-5.5-0.6-7.8-1.9c-2.3-1.2-4.1-3-5.3-5.3  c-1.3-2.3-1.9-5-1.9-8.1c0-3.1,0.6-5.8,1.9-8.1c1.3-2.3,3.1-4.1,5.3-5.3c2.3-1.2,4.9-1.9,7.9-1.9c2.9,0,5.4,0.6,7.7,1.8  c2.2,1.2,4,2.9,5.2,5.2C89.6,36.4,90.2,39,90.2,42z M80.9,39.6c0-1.6-0.5-2.8-1.6-3.7c-1.1-0.9-2.4-1.4-4-1.4  c-1.5,0-2.8,0.4-3.9,1.3c-1,0.9-1.7,2.2-1.9,3.8H80.9z"></path>
<path class="st0" d="M107.1,57.8c-2.6,0-4.9-0.4-6.9-1.3c-2-0.9-3.6-2.1-4.8-3.6c-1.2-1.6-1.8-3.3-2-5.2h9c0.1,1,0.6,1.9,1.4,2.5  c0.9,0.6,1.9,1,3.2,1c1.1,0,2-0.2,2.6-0.6c0.6-0.5,1-1.1,1-1.8c0-0.9-0.4-1.5-1.3-1.9c-0.9-0.4-2.3-0.9-4.3-1.4  c-2.1-0.5-3.9-1-5.3-1.5c-1.4-0.6-2.7-1.4-3.7-2.6c-1-1.2-1.5-2.8-1.5-4.9c0-1.7,0.5-3.3,1.4-4.6c1-1.4,2.3-2.5,4.2-3.4  c1.9-0.8,4-1.2,6.6-1.2c3.7,0,6.7,0.9,8.8,2.8c2.2,1.9,3.4,4.3,3.7,7.4h-8.4c-0.1-1-0.6-1.9-1.4-2.5c-0.7-0.6-1.7-0.9-3-0.9  c-1.1,0-1.9,0.2-2.5,0.6c-0.6,0.4-0.9,0.9-0.9,1.7c0,0.9,0.4,1.5,1.3,1.9c0.9,0.4,2.3,0.9,4.3,1.3c2.2,0.6,4,1.1,5.4,1.7  c1.4,0.5,2.6,1.4,3.6,2.7c1.1,1.2,1.6,2.8,1.7,4.9c0,1.7-0.5,3.3-1.5,4.7c-1,1.4-2.4,2.4-4.2,3.2C111.6,57.4,109.5,57.8,107.1,57.8z  "></path>
<path class="st0" d="M141.3,49.6v7.7h-4.6c-3.3,0-5.9-0.8-7.7-2.4c-1.9-1.6-2.8-4.3-2.8-8V35.1h-3.6v-7.6h3.6V21h9.1v6.6h6v7.6h-6  v12c0,0.9,0.2,1.5,0.6,1.9c0.4,0.4,1.1,0.6,2.1,0.6H141.3z"></path>
<path class="st0" d="M164.6,27.8c3.4,0,6.2,1.7,8.2,4c2.1,2.2,3.1,5.3,3.1,9.3v16.2h-9.1V42.9c0-2-0.5-3.5-1.5-4.6  c-1-1.1-2.4-1.7-4.2-1.7c-1.7,0-3.1,0.6-4.2,1.7c-1,1.1-1.5,2.7-1.5,4.6v14.4h-9.1V21h9.1v11.1c0.9-1.3,2.2-2.4,3.8-3.2  C160.8,28.2,162.6,27.8,164.6,27.8z"></path>
<path class="st0" d="M191.3,32.6v24.7h-9.1V32.6H191.3z"></path>
<path class="st0" d="M210,57.8c-2.6,0-4.9-0.4-6.9-1.3c-2-0.9-3.6-2.1-4.8-3.6c-1.2-1.6-1.8-3.3-2-5.2h9c0.1,1,0.6,1.9,1.4,2.5  c0.9,0.6,1.9,1,3.2,1c1.1,0,2-0.2,2.6-0.6c0.6-0.5,1-1.1,1-1.8c0-0.9-0.4-1.5-1.3-1.9c-0.9-0.4-2.3-0.9-4.3-1.4  c-2.1-0.5-3.9-1-5.3-1.5c-1.4-0.6-2.7-1.4-3.7-2.6c-1-1.2-1.5-2.8-1.5-4.9c0-1.7,0.5-3.3,1.4-4.6c1-1.4,2.3-2.5,4.2-3.4  c1.9-0.8,4-1.2,6.6-1.2c3.7,0,6.7,0.9,8.8,2.8c2.2,1.9,3.4,4.3,3.7,7.4h-8.4c-0.1-1-0.6-1.9-1.4-2.5c-0.7-0.6-1.7-0.9-3-0.9  c-1.1,0-1.9,0.2-2.5,0.6c-0.6,0.4-0.9,0.9-0.9,1.7c0,0.9,0.4,1.5,1.3,1.9c0.9,0.4,2.3,0.9,4.3,1.3c2.2,0.6,4,1.1,5.4,1.7  c1.4,0.5,2.6,1.4,3.6,2.7c1.1,1.2,1.6,2.8,1.7,4.9c0,1.7-0.5,3.3-1.5,4.7c-1,1.4-2.4,2.4-4.2,3.2C214.5,57.4,212.4,57.8,210,57.8z"></path>
<path class="st0" d="M236.7,31.8c0.9-1.4,2.1-2.5,3.7-3.4c1.6-0.9,3.4-1.3,5.5-1.3c2.5,0,4.7,0.6,6.7,1.9c2,1.2,3.6,3,4.7,5.3  c1.2,2.3,1.8,5,1.8,8.1s-0.6,5.8-1.8,8.1c-1.1,2.3-2.7,4.1-4.7,5.4c-2,1.2-4.2,1.9-6.7,1.9c-2.1,0-3.9-0.4-5.5-1.3  c-1.6-0.9-2.8-2-3.7-3.3v18.4h-9.1v-44h9.1V31.8z M249.8,42.4c0-2.3-0.6-4.1-1.9-5.3c-1.2-1.3-2.8-2-4.6-2c-1.8,0-3.4,0.7-4.6,2  c-1.2,1.3-1.9,3.1-1.9,5.4s0.6,4.1,1.9,5.4c1.3,1.3,2.8,2,4.6,2c1.8,0,3.4-0.7,4.6-2C249.1,46.5,249.8,44.7,249.8,42.4z"></path>
<path class="st0" d="M261.9,42.4c0-3.1,0.6-5.7,1.7-8.1c1.2-2.3,2.8-4.1,4.8-5.3c2-1.2,4.2-1.9,6.7-1.9c2.1,0,3.9,0.4,5.5,1.3  c1.6,0.9,2.8,2,3.7,3.4v-4.2h9.1v29.8h-9.1v-4.2c-0.9,1.4-2.1,2.5-3.7,3.4c-1.6,0.9-3.4,1.3-5.5,1.3c-2.4,0-4.6-0.6-6.6-1.9  c-2-1.3-3.6-3.1-4.8-5.4C262.5,48.2,261.9,45.5,261.9,42.4z M284.3,42.5c0-2.3-0.6-4.1-1.9-5.4c-1.2-1.3-2.8-2-4.6-2  c-1.8,0-3.4,0.7-4.6,2c-1.2,1.3-1.9,3.1-1.9,5.3s0.6,4.1,1.9,5.4c1.3,1.3,2.8,2,4.6,2c1.8,0,3.3-0.7,4.6-2  C283.6,46.5,284.3,44.7,284.3,42.5z"></path>
<path class="st0" d="M318.1,27.2c3.5,0,6.3,1.1,8.3,3.4c2.1,2.2,3.2,5.3,3.2,9.3v17.4h-9.1V41.2c0-2-0.5-3.5-1.5-4.6  c-1-1.1-2.4-1.7-4.2-1.7c-1.7,0-3.1,0.6-4.2,1.7c-1,1.1-1.5,2.7-1.5,4.6v16.2h-9.1V27.6h9.1v4c0.9-1.3,2.2-2.3,3.7-3.1  C314.4,27.6,316.1,27.2,318.1,27.2z"></path>
<path class="st0" d="M345,32.8v24.5h-9.1V32.8H345z"></path>
<path class="st0" d="M349.7,42.4c0-3.1,0.6-5.7,1.7-8.1c1.2-2.3,2.8-4.1,4.8-5.3c2-1.2,4.2-1.9,6.7-1.9c2.1,0,3.9,0.4,5.5,1.3  c1.6,0.9,2.8,2,3.7,3.4v-4.2h9.1v29.8H372v-4.2c-0.9,1.4-2.1,2.5-3.7,3.4c-1.6,0.9-3.4,1.3-5.5,1.3c-2.4,0-4.6-0.6-6.6-1.9  c-2-1.3-3.6-3.1-4.8-5.4C350.3,48.2,349.7,45.5,349.7,42.4z M372,42.5c0-2.3-0.6-4.1-1.9-5.4c-1.2-1.3-2.8-2-4.6-2  c-1.8,0-3.4,0.7-4.6,2c-1.2,1.3-1.9,3.1-1.9,5.3s0.6,4.1,1.9,5.4c1.3,1.3,2.8,2,4.6,2c1.8,0,3.3-0.7,4.6-2  C371.4,46.5,372,44.7,372,42.5z"></path>
<path class="st0" d="M182.2,21h9.1v8.1h-9.1V21z"></path>
<path class="st0" d="M335.8,21h9.2v8.1h-9.2V21z"></path>
<path class="st1" d="M8,35h25V8H12c-2.2,0-4,1.8-4,4V35z"></path>
<path class="st1" d="M33,61h23c2.2,0,4-1.8,4-4V35H33V61z"></path>
<path class="st2" d="M0,65c0,2.2,1.8,4,4,4h22V46l-1.5-1L24,43H0V65z"></path>
<path class="st3" d="M44,22.5V26h23V4c0-2.2-1.8-4-4-4H41v22L44,22.5z"></path>
<path class="st0" d="M43.5,26c-0.8-1.5-1.8-2.6-3.4-3.4c-1.5-0.8-3.4-1.2-5.5-1.2c-3.7,0-6.6,1.2-8.8,3.6c-2.2,2.4-3.3,5.5-3.3,9.5  c0,4.3,1.1,7.6,3.4,10c2.3,2.4,5.5,3.5,9.6,3.5c2.8,0,5.1-0.7,7-2.1c1.9-1.4,3.3-3.4,4.2-6H36v-8h21v10.2c-0.8,2.8-2.3,5.4-4.3,7.8  c-2,2.4-4.5,4.4-7.6,5.9C42,57.3,38.5,58,34.7,58c-4.6,0-8.7-1-12.3-3c-3.6-2-6.4-4.8-8.4-8.3c-2-3.5-3-7.6-3-12.2s1-8.6,3-12.2  c2-3.6,4.8-6.4,8.4-8.3c3.6-2,7.6-3,12.2-3c5.6,0,10.2,1.3,14,4c3.8,2.7,6.2,6.3,7.4,11H43.5z"></path>
</svg>
